<svg enable-background="new 0 0 160 160" viewBox="0 0 160 160" xmlns="http://www.w3.org/2000/svg"><path d="m159.66 80.25c0 26.48 0 52.96.01 79.45 0 .55-.11.68-.67.68-52.77-.02-105.53-.02-158.3 0-.63 0-.7-.17-.7-.74.02-52.99.02-105.97 0-158.96 0-.59.11-.72.71-.72 52.74.02 105.48.02 158.23 0 .67 0 .74.19.74.77-.02 26.5-.02 53.01-.02 79.52z" fill="#6f2cfe"/><path d="m110.26 87.56c0-3.6 0-7.15 0-10.69 0-5.96-.01-11.92.02-17.88 0-.65-.18-.73-.75-.59-7.61 1.89-15.22 3.77-22.84 5.65-4.98 1.23-9.97 2.48-14.95 3.69-.52.13-.71.31-.7.88.02 12.78.01 25.57.02 38.35 0 2.38-.5 4.62-1.91 6.54-2.25 3.05-5.29 4.89-9.05 5.43-2.89.42-5.71.13-8.36-1.17-3.7-1.81-6.26-4.59-6.95-8.76-.57-3.45.65-6.38 2.97-8.9 3.82-4.16 10.65-5.33 16.1-2.92.79.35 1.53.78 2.28 1.28.19-.28.1-.58.1-.85.01-14.61.01-29.21-.02-43.82 0-.71.21-.94.88-1.1 4.76-1.13 9.52-2.26 14.26-3.47 6.26-1.61 12.57-3.04 18.83-4.65 4.67-1.2 9.36-2.32 14.03-3.48.82-.2.82-.2.82.65 0 17.91-.09 35.82.05 53.72.04 5.46-3.15 9.94-7.83 11.68-5.5 2.04-10.63 1.32-15.01-2.62-5.37-4.83-4.65-12.9 1.36-16.95 3.58-2.41 7.52-3.07 11.71-2.12 1.49.34 2.88.98 4.2 1.78.2.12.39.29.74.32z" fill="#fff"/></svg>